<svg width="16" height="16" viewBox="0 0 16 16" fill="none" xmlns="http://www.w3.org/2000/svg">
<g clip-path="url(#clip0_1_60)">
<rect width="16" height="16" rx="8" fill="#2E2E48"/>
<path d="M8 11.75C7.47372 11.3011 6.98591 10.809 6.54167 10.2787C5.875 9.48249 5.08333 8.29666 5.08333 7.16666C5.08274 5.98647 5.79344 4.92224 6.88378 4.47057C7.97412 4.01891 9.22919 4.26884 10.0633 5.10374C10.6119 5.64983 10.9191 6.39265 10.9167 7.16666C10.9167 8.29666 10.125 9.48249 9.45833 10.2787C9.01409 10.809 8.52628 11.3011 8 11.75ZM8 5.91666C7.55342 5.91666 7.14076 6.15491 6.91747 6.54166C6.69418 6.92841 6.69418 7.40491 6.91747 7.79166C7.14076 8.17841 7.55342 8.41666 8 8.41666C8.69036 8.41666 9.25 7.85701 9.25 7.16666C9.25 6.4763 8.69036 5.91666 8 5.91666Z" fill="#D9DFE8"/>
</g>
<defs>
<clipPath id="clip0_1_60">
<rect width="16" height="16" rx="8" fill="white"/>
</clipPath>
</defs>
</svg>
