<svg width="16" height="16" viewBox="0 0 16 16" fill="none" xmlns="http://www.w3.org/2000/svg">
<g clip-path="url(#clip0_1_52)">
<rect width="16" height="16" rx="8" fill="#2E2E48"/>
<path d="M10.9156 11.3333C7.36078 11.3384 4.66287 8.60811 4.66667 5.08437C4.66667 4.85425 4.85322 4.66666 5.08334 4.66666H6.18307C6.38956 4.66666 6.56497 4.81838 6.59529 5.02263C6.66796 5.51216 6.81049 5.98873 7.01854 6.43778L7.06135 6.5302C7.12089 6.6587 7.08053 6.81138 6.96528 6.89369C6.62471 7.1369 6.49455 7.62647 6.75987 8.00847C7.09283 8.48784 7.51252 8.90745 7.99178 9.24025C8.37376 9.50549 8.86325 9.37535 9.10646 9.03484C9.18882 8.91953 9.34159 8.87916 9.47017 8.93872L9.56216 8.98133C10.0112 9.18936 10.4879 9.3319 10.9774 9.40455C11.1817 9.43487 11.3333 9.61027 11.3333 9.81677V10.9166C11.3333 11.1468 11.1463 11.3333 10.9162 11.3333L10.9156 11.3333Z" fill="#E2E6EE"/>
</g>
<defs>
<clipPath id="clip0_1_52">
<rect width="16" height="16" rx="8" fill="white"/>
</clipPath>
</defs>
</svg>
