<svg aria-hidden="true" style="position: absolute; width: 0; height: 0; overflow: hidden;" version="1.1" xmlns="http://www.w3.org/2000/svg" xmlns:xlink="http://www.w3.org/1999/xlink">
<defs>
<symbol id="double-quotes" viewBox="0 0 32 32">
<path fill="#79819a" style="fill: var(--color1, #79819a)" d="M21.83 15.495c2.092 0 3.503 1.456 3.503 3.613 0 1.941-1.621 3.559-3.817 3.559-2.405 0-4.183-1.941-4.183-4.907 0-6.74 4.915-9.436 8-9.76v2.966c-2.091 0.377-4.444 2.48-4.549 4.799 0.105-0.054 0.523-0.27 1.046-0.27z"></path>
<path fill="#79819a" style="fill: var(--color1, #79819a)" d="M11.163 15.495c2.092 0 3.503 1.456 3.503 3.613 0 1.941-1.621 3.559-3.817 3.559-2.405 0-4.183-1.941-4.183-4.907 0-6.74 4.915-9.436 8-9.76v2.966c-2.091 0.377-4.444 2.48-4.549 4.799 0.105-0.054 0.523-0.27 1.046-0.27z"></path>
</symbol>
<symbol id="english_flag" viewBox="0 0 32 32">
<path fill="#012169" style="fill: var(--color2, #012169)" d="M0.031 0h32v32h-32v-32z"></path>
<path fill="#fff" style="fill: var(--color3, #fff)" d="M32.031 0v4l-11.875 12 11.875 11.688v4.313h-4.188l-11.938-11.75-11.625 11.75h-4.25v-4.25l11.625-11.688-11.625-11.438v-4.625h3.875l12 11.75 11.625-11.75h4.5z"></path>
<path fill="#c8102e" style="fill: var(--color4, #c8102e)" d="M11.531 20.25l0.688 2.125-9.563 9.625h-2.625v-0.188l11.5-11.563zM19.281 19.5l3.375 0.5 9.375 9.188v2.813l-12.75-12.5zM32.031 0l-12 12.25-0.25-2.75 9.375-9.5h2.875zM0.031 0.063l12.063 11.813-3.688-0.5-8.375-8.313v-3z"></path>
<path fill="#fff" style="fill: var(--color3, #fff)" d="M11.031 0v32h10v-32h-10zM0.031 11v10h32v-10h-32z"></path>
<path fill="#c8102e" style="fill: var(--color4, #c8102e)" d="M0.031 13v6h32v-6h-32zM13.031 0v32h6v-32h-6z"></path>
</symbol>
<symbol id="facebook" viewBox="0 0 32 32">
<path fill="#3a5ba2" style="fill: var(--color5, #3a5ba2)" d="M16.014 32c8.786 0 15.986-7.199 15.986-15.986 0-8.815-7.199-16.014-15.986-16.014-8.815 0-16.014 7.199-16.014 16.014 0 8.786 7.199 15.986 16.014 15.986v0z"></path>
<path fill="#fff" style="fill: var(--color3, #fff)" d="M14.001 10.005c0-2.211 1.786-3.997 3.996-3.997h3.005v3.997h-2.012c-0.538 0-0.992 0.454-0.992 0.992v2.012h3.005v3.996h-3.005v9.014h-3.996v-9.014h-3.004v-3.996h3.004v-3.004z"></path>
</symbol>
<symbol id="geolocation" viewBox="0 0 32 32">
<path d="M15.133 20.2c-0.121-0.122-0.288-0.197-0.473-0.197s-0.352 0.075-0.473 0.197l-10.667 10.667c-0.118 0.12-0.191 0.285-0.191 0.467 0 0.368 0.298 0.667 0.667 0.667 0.001 0 0.003 0 0.004 0h21.333c0.364-0.005 0.657-0.302 0.657-0.667 0-0.182-0.073-0.347-0.191-0.467l0 0z"></path>
<path d="M28.84 19.493c-0.052-0.014-0.111-0.023-0.172-0.023-0.244 0-0.457 0.131-0.573 0.326l-0.002 0.003c-0.95 1.514-1.686 3.274-2.112 5.153l-0.022 0.114c-0.037 0.157-0.087 0.295-0.152 0.425l0.005-0.011c-0.038 0.081-0.060 0.177-0.060 0.277 0 0.183 0.074 0.349 0.194 0.47l2.24 2.24c0.121 0.126 0.292 0.204 0.48 0.204 0.368 0 0.667-0.298 0.667-0.667 0-0.001 0-0.003 0-0.004v0-7.867c-0.002-0.305-0.208-0.561-0.489-0.639l-0.005-0.001z"></path>
<path d="M15.893 13.093c-0.581-1.163-0.995-2.514-1.168-3.941l-0.006-0.059c-0.034-0.296-0.054-0.639-0.054-0.987 0-0.037 0-0.075 0.001-0.112l-0 0.006c-0-0.010-0-0.023-0-0.035 0-1.583 0.4-3.073 1.104-4.374l-0.024 0.049c0.047-0.089 0.075-0.195 0.075-0.307 0-0.366-0.295-0.664-0.661-0.667h-12.494c-1.473 0-2.667 1.194-2.667 2.667v0 22.667c0.005 0.364 0.302 0.657 0.667 0.657 0.182 0 0.347-0.073 0.467-0.191l14.667-14.667c0.096-0.115 0.155-0.264 0.155-0.427 0-0.101-0.023-0.198-0.063-0.284l0.002 0.004zM7.333 14c-2.209 0-4-1.791-4-4s1.791-4 4-4c0.905 0 1.74 0.301 2.41 0.807l-0.010-0.007c0.163 0.123 0.267 0.316 0.267 0.533 0 0.368-0.298 0.667-0.667 0.667-0.151 0-0.29-0.050-0.402-0.135l0.002 0.001c-0.439-0.331-0.994-0.53-1.596-0.53-1.473 0-2.667 1.194-2.667 2.667s1.194 2.667 2.667 2.667c1.237 0 2.277-0.842 2.579-1.984l0.004-0.019h-1.92c-0.368 0-0.667-0.298-0.667-0.667s0.298-0.667 0.667-0.667v0h2.667c0.368 0 0.667 0.298 0.667 0.667v0c0 2.209-1.791 4-4 4v0z"></path>
<path d="M24 0c-4.418 0-8 3.582-8 8v0c-0.008 0.136-0.013 0.294-0.013 0.453s0.005 0.318 0.014 0.475l-0.001-0.022c0.28 2.84 1.8 5.187 3.413 7.667 1.74 2.335 3.077 5.085 3.844 8.064l0.036 0.163c0 0.368 0.298 0.667 0.667 0.667s0.667-0.298 0.667-0.667v0c0.803-3.142 2.14-5.892 3.924-8.289l-0.044 0.062c1.613-2.48 3.133-4.827 3.413-7.653 0.034-0.276 0.053-0.596 0.053-0.92 0-4.409-3.566-7.985-7.972-8h-0.001zM24 4c2.209 0 4 1.791 4 4s-1.791 4-4 4c-2.209 0-4-1.791-4-4v0c0-2.209 1.791-4 4-4v0z"></path>
</symbol>
<symbol id="location" viewBox="0 0 26 32">
<path fill="#79819a" style="fill: var(--color1, #79819a)" d="M12.8 30.4c-2.021-1.724-3.894-3.614-5.6-5.65-2.56-3.058-5.6-7.611-5.6-11.95-0.002-4.532 2.727-8.619 6.914-10.353s9.006-0.775 12.209 2.431c2.106 2.097 3.286 4.949 3.277 7.922 0 4.339-3.040 8.893-5.6 11.95-1.706 2.036-3.579 3.926-5.6 5.65zM12.8 8c-1.715 0-3.299 0.915-4.157 2.4s-0.857 3.315 0 4.8c0.857 1.485 2.442 2.4 4.157 2.4 2.651 0 4.8-2.149 4.8-4.8s-2.149-4.8-4.8-4.8z"></path>
</symbol>
<symbol id="link" viewBox="0 0 32 32">
<path fill="#2e2e48" style="fill: var(--color6, #2e2e48)" d="M16 0c8.837 0 16 7.163 16 16s-7.163 16-16 16c-8.837 0-16-7.163-16-16s7.163-16 16-16z"></path>
<path fill="#e2e6ee" style="fill: var(--color8, #e2e6ee)" d="M13.054 23.113c-1.685 0-3.204-1.015-3.849-2.572s-0.289-3.349 0.903-4.541l1.768-1.768 1.178 1.178-1.768 1.768c-0.632 0.632-0.878 1.552-0.647 2.415s0.905 1.537 1.768 1.768 1.783-0.015 2.415-0.647l1.768-1.768 1.178 1.179-1.767 1.767c-0.78 0.784-1.841 1.223-2.947 1.22zM13.643 19.535l-1.178-1.178 5.893-5.893 1.178 1.178-5.893 5.893zM20.126 17.767l-1.179-1.178 1.768-1.768c0.64-0.63 0.893-1.554 0.664-2.423s-0.908-1.546-1.776-1.776c-0.868-0.23-1.793 0.023-2.423 0.663l-1.768 1.768-1.178-1.178 1.768-1.768c1.629-1.615 4.258-1.609 5.88 0.013s1.628 4.25 0.013 5.88l-1.768 1.768z"></path>
</symbol>
<symbol id="mail" viewBox="0 0 32 32">
<path d="M28 13c-0.552 0-1 0.448-1 1v0 8c0 0.552-0.448 1-1 1v0h-20c-0.552 0-1-0.448-1-1v0-8c0-0.552-0.448-1-1-1s-1 0.448-1 1v0 8c0.001 0.828 0.337 1.578 0.88 2.12l0 0c0.542 0.543 1.292 0.879 2.12 0.88h20c0.828-0.001 1.578-0.337 2.12-0.88l0-0c0.543-0.542 0.879-1.292 0.88-2.12v-8c0-0.552-0.448-1-1-1v0z"></path>
<path d="M15.4 18.8c0.165 0.125 0.374 0.2 0.6 0.2s0.435-0.075 0.602-0.202l-0.003 0.002 11.81-8.86c0.243-0.184 0.398-0.473 0.398-0.798 0-0.157-0.036-0.305-0.101-0.438l0.003 0.006c-0.157-0.32-0.354-0.594-0.59-0.83v0c-0.542-0.543-1.292-0.879-2.12-0.88h-20c-0.828 0.001-1.578 0.337-2.12 0.88l-0 0c-0.236 0.236-0.433 0.51-0.582 0.812l-0.008 0.018c-0.062 0.126-0.098 0.275-0.098 0.432 0 0.325 0.155 0.614 0.395 0.797l0.002 0.002zM6 9h20c0.042-0.007 0.091-0.011 0.14-0.011s0.098 0.004 0.145 0.012l-0.005-0.001-10.28 7.75-10.28-7.75c0.042-0.007 0.091-0.011 0.14-0.011s0.098 0.004 0.145 0.012l-0.005-0.001z"></path>
</symbol>
<symbol id="phone" viewBox="0 0 32 32">
<path d="M27.36 6.15l-2.27-2.27c-0.543-0.542-1.292-0.877-2.12-0.877-0.99 0-1.868 0.48-2.414 1.219l-0.006 0.008-2.21 3c-0.36 0.489-0.576 1.103-0.576 1.767 0 0.319 0.050 0.626 0.142 0.914l-0.006-0.021 0.13 0.38c0.27 0.89 0.62 2 0.84 2.74 0.026 0.085 0.041 0.182 0.041 0.283 0 0.151-0.034 0.294-0.094 0.423l0.003-0.006c-0.575 1.149-1.268 2.136-2.086 3.007l0.006-0.006c-0.183 0.181-0.296 0.432-0.296 0.71s0.113 0.529 0.296 0.71l0 0c0.181 0.18 0.43 0.291 0.705 0.291s0.524-0.111 0.705-0.291l-0 0c0.965-1.007 1.786-2.164 2.423-3.429l0.037-0.081c0.192-0.378 0.304-0.824 0.304-1.297 0-0.312-0.049-0.612-0.139-0.894l0.006 0.021c-0.21-0.72-0.57-1.86-0.85-2.75l-0.12-0.39c-0.019-0.073-0.030-0.157-0.030-0.244 0-0.238 0.083-0.456 0.222-0.628l-0.001 0.002 2.21-3c0.184-0.249 0.477-0.409 0.807-0.409 0.274 0 0.523 0.11 0.703 0.289l0.67 0.67-2 3.1c-0.099 0.153-0.158 0.339-0.158 0.54 0 0.552 0.447 0.999 0.998 1h0c0.001 0 0.003 0 0.005 0 0.348 0 0.654-0.177 0.833-0.446l0.002-0.004 1.77-2.74 0.16 0.15c0.423 0.46 0.683 1.076 0.683 1.753 0 0.045-0.001 0.089-0.003 0.133l0-0.006c0 1.76-1.19 5-6.73 10.44-5.81 5.7-10.42 8-12.33 6.070l-2.33-2.3c-0.181-0.181-0.293-0.431-0.293-0.707 0-0.026 0.001-0.051 0.003-0.076l-0 0.003c0.025-0.301 0.179-0.561 0.407-0.728l0.003-0.002 3-2.21c0.163-0.12 0.368-0.193 0.59-0.193 0.103 0 0.203 0.016 0.297 0.045l-0.007-0.002 1.89 0.59-2.13 1.51c-0.259 0.183-0.426 0.482-0.426 0.819 0 0.218 0.070 0.42 0.188 0.584l-0.002-0.003c0.184 0.256 0.48 0.42 0.815 0.42 0.002 0 0.004 0 0.006-0h-0c0.213-0.001 0.411-0.068 0.573-0.182l-0.003 0.002 3.8-2.67c0.263-0.183 0.433-0.483 0.433-0.824 0-0.216-0.068-0.416-0.185-0.579l0.002 0.003c-0.131-0.172-0.313-0.298-0.523-0.358l-0.007-0.002-3.8-1.22c-0.267-0.086-0.574-0.136-0.893-0.136-0.665 0-1.279 0.216-1.776 0.582l0.008-0.006-3 2.21c-0.748 0.552-1.227 1.43-1.227 2.42 0 0.828 0.335 1.577 0.877 2.12l-0-0 2.27 2.28c0.78 0.779 1.857 1.261 3.046 1.261 0.026 0 0.052-0 0.078-0.001l-0.004 0c2.52 0 6.32-1.75 12-7.32 4.84-4.75 7.31-8.74 7.33-11.86 0.002-0.053 0.004-0.116 0.004-0.179 0-1.215-0.486-2.317-1.274-3.121l0.001 0.001z"></path>
</symbol>
<symbol id="polish_flag" viewBox="0 0 32 32">
<path fill="#fff" style="fill: var(--color3, #fff)" d="M32.031 32h-32v-32h32v32z"></path>
<path fill="#dc143c" style="fill: var(--color9, #dc143c)" d="M32.031 32h-32v-16h32v16z"></path>
</symbol>
<symbol id="russian_flag" viewBox="0 0 32 32">
<path fill="#fff" style="fill: var(--color3, #fff)" d="M0.031 0h32v32h-32v-32z"></path>
<path fill="#0039a6" style="fill: var(--color10, #0039a6)" d="M0.031 10.669h32v21.331h-32v-21.331z"></path>
<path fill="#d52b1e" style="fill: var(--color11, #d52b1e)" d="M0.031 21.331h32v10.669h-32v-10.669z"></path>
</symbol>
<symbol id="telegram" viewBox="0 0 32 32">
<path fill="#000" style="fill: var(--color12, #000)" d="M32 16c0 8.837-7.163 16-16 16s-16-7.163-16-16c0-8.837 7.163-16 16-16s16 7.163 16 16z"></path>
<path fill="#fff" style="fill: var(--color3, #fff)" d="M23.788 9.206l-2.856 14.406c0 0-0.4 1-1.5 0.519l-6.594-5.056-2.4-1.156-4.037-1.356c0 0-0.619-0.219-0.681-0.7s0.7-0.738 0.7-0.738l16.050-6.294c0-0.006 1.319-0.588 1.319 0.375z"></path>
<path fill="#d2e4f0" style="fill: var(--color13, #d2e4f0)" d="M12.325 23.45c0 0-0.194-0.019-0.431-0.775s-1.456-4.756-1.456-4.756l9.694-6.156c0 0 0.563-0.338 0.538 0 0 0 0.1 0.063-0.2 0.338-0.3 0.281-7.613 6.856-7.613 6.856z"></path>
<path fill="#b5cfe4" style="fill: var(--color14, #b5cfe4)" d="M15.363 21.012l-2.606 2.381c0 0-0.206 0.156-0.425 0.056l0.5-4.419z"></path>
</symbol>
<symbol id="ukrainian_flag" viewBox="0 0 32 32">
<path fill="#ffd700" style="fill: var(--color15, #ffd700)" d="M0.031 0h32v32h-32v-32z"></path>
<path fill="#0057b8" style="fill: var(--color16, #0057b8)" d="M0.031 0h32v16h-32v-16z"></path>
</symbol>
<symbol id="whats_app" viewBox="0 0 32 32">
<path fill="#5acf5f" style="fill: var(--color17, #5acf5f)" d="M16.004 1.047h-0.008c-8.222 0-14.909 6.706-14.909 14.953 0 3.271 1.051 6.303 2.839 8.764l-1.858 5.555 5.732-1.837c2.358 1.566 5.171 2.471 8.204 2.471 8.222 0 14.909-6.708 14.909-14.953s-6.686-14.953-14.909-14.953v0z"></path>
<path fill="#fcfcfc" style="fill: var(--color18, #fcfcfc)" d="M24.681 22.162c-0.36 1.019-1.788 1.864-2.927 2.111-0.78 0.166-1.797 0.299-5.223-1.125-4.383-1.82-7.205-6.286-7.425-6.576-0.211-0.29-1.771-2.364-1.771-4.51s1.087-3.191 1.525-3.639c0.359-0.369 0.954-0.536 1.525-0.536 0.185 0 0.35 0.009 0.5 0.017 0.438 0.019 0.658 0.045 0.947 0.738 0.36 0.869 1.236 3.015 1.34 3.236 0.106 0.221 0.212 0.519 0.063 0.809-0.14 0.299-0.263 0.432-0.483 0.686s-0.429 0.449-0.649 0.722c-0.201 0.237-0.429 0.492-0.175 0.931 0.253 0.43 1.129 1.863 2.419 3.015 1.665 1.486 3.014 1.961 3.497 2.163 0.36 0.15 0.788 0.114 1.051-0.166 0.334-0.361 0.746-0.959 1.165-1.547 0.298-0.422 0.675-0.475 1.070-0.326 0.403 0.14 2.533 1.196 2.971 1.415 0.438 0.221 0.727 0.325 0.833 0.51 0.104 0.185 0.104 1.054-0.255 2.074v0z"></path>
</symbol>
<symbol id="pachamama-logo" viewBox="0 0 25 32">
<path d="M5.391 4c-1.322 0.452-2.713 0.835-3.026 0.87-0.348 0-0.626 0.243-0.626 0.522 0 0.417 0.626 0.522 3.478 0.522 3.061 0 3.478 0.070 3.826 0.661 0.835 1.6 0.104 1.913-3.13 1.391-2.574-0.452-4.174-0.243-4.174 0.522 0 0.73 0.8 0.904 3.861 0.904 4.070 0 4.139 0.070 4.139 3.93 0 1.774 0.139 3.409 0.278 3.652 0.487 0.73 2.504 1.148 3.965 0.765 2.33-0.661 3.096-2.852 1.496-4.313-1.043-0.974-1.078-1.252-0.209-1.252 1.078 0 1.774 1.322 1.774 3.339 0 1.461-0.174 2.052-0.904 2.887-1.496 1.774-4.383 1.843-6.4 0.139-0.974-0.8-1.043-1.009-1.043-3.339 0-1.391-0.139-2.678-0.278-2.922-0.661-1.078-5.391-1.6-6.261-0.73-0.278 0.278-0.417 1.6-0.417 3.687 0 2.922 0.070 3.235 0.591 3.13 0.487-0.104 0.661-0.522 0.73-2.191 0.104-2.748 0.348-3.722 0.87-3.548 0.243 0.070 0.487 1.148 0.591 2.887 0.139 2.47 0.243 2.748 0.87 2.748s0.696-0.243 0.696-2.609c0-2.365 0.070-2.609 0.696-2.609s0.696 0.243 0.765 2.957c0.070 1.635 0 3.304-0.070 3.757-0.104 0.417-1.148 1.809-2.33 3.13-1.148 1.287-2.365 2.852-2.643 3.478-0.487 1.009-0.487 1.183 0 1.67 1.113 1.113 2.539-0.383 4.835-5.078 0.73-1.53 1.53-2.783 1.739-2.783 0.417 0 0.209 0.835-0.8 3.13-1.391 3.165-2.052 5.635-1.635 6.122 0.209 0.278 0.591 0.487 0.835 0.487 0.939 0 1.496-1.391 2.087-5.148 0.626-3.896 1.078-4.87 1.983-3.965 0.243 0.243 0.174 0.939-0.209 2.226-1.183 4.070-1.043 7.235 0.278 7.235 1.183 0 1.565-1.183 1.67-5.217 0.070-3.27 0.209-4 0.626-4 0.383 0 0.661 0.835 1.078 3.13 0.626 3.548 1.183 4.939 2.087 5.217 1.67 0.557 1.774-1.148 0.313-5.287-0.591-1.635-0.974-3.061-0.904-3.165 0.522-0.487 1.391 0.591 2.783 3.478 1.635 3.513 2.226 4.243 3.13 3.896 1.496-0.557-0.209-4.8-3.13-7.826l-1.565-1.565 0.278-3.304c0.278-3.096 0.313-3.27 1.113-3.374 0.8-0.139 0.8-0.104 0.557 2.261-0.209 2.017-0.139 2.47 0.348 2.887 0.835 0.696 1.217-0.070 1.217-2.643 0-1.913 0.383-2.922 1.113-2.922 0.139 0 0.278 1.252 0.278 2.783 0 2.539 0.070 2.783 0.696 2.783s0.696-0.243 0.696-3.096c0-3.93-0.104-4.035-3.93-3.722-1.565 0.104-3.27 0.313-3.791 0.417-1.252 0.278-1.322-0.452-0.104-0.765 0.487-0.104 1.043-0.487 1.217-0.835 0.487-0.904 0.417-3.13-0.104-4.174-1.078-2.122-7.374-2.783-11.896-1.217zM14.957 5.739c0.209 0.278 0.348 1.009 0.278 1.635-0.104 1.009-0.243 1.148-1.287 1.252-0.661 0.070-1.565 0.035-2.017-0.104-0.73-0.174-0.835-0.348-0.73-1.635 0.104-1.252 0.243-1.496 0.974-1.67 1.113-0.278 2.33-0.035 2.783 0.522zM13.426 11.652c-0.139 0.487-0.557 1.217-0.939 1.6-0.8 0.8-0.765 1.635 0.104 2.191 0.939 0.557 1.704-0.313 0.8-0.939-0.696-0.557-0.243-1.078 0.661-0.73 0.73 0.278 1.009 1.357 0.557 2.226-0.417 0.8-2.365 0.974-3.061 0.278-0.73-0.73-0.522-4 0.278-4.8 1.009-1.009 1.878-0.939 1.6 0.174z"></path>
<path d="M11.896 6.852c0.070 0.348 0.452 0.661 0.904 0.73 0.591 0.104 0.765-0.070 0.765-0.591 0-0.557-0.209-0.73-0.904-0.73-0.661 0-0.87 0.174-0.765 0.591z"></path>
</symbol>
</defs>
</svg>
